<?xml version="1.0" encoding="UTF-8"?>
<svg width="180" height="40px" viewBox="0 0 180 43" xmlns="http://www.w3.org/2000/svg" xmlns:xlink="http://www.w3.org/1999/xlink">
    <defs>
        <path d="M7.82857925,0.956295619 C6.24165148,2.44623193 4.84604956,4.07749307 4.05921168,5.88075422 C3.25608487,7.67360772 3.0752502,9.5828625 3.46066272,11.4488434 C3.80300622,13.3233147 4.66631922,14.8537861 6.00449578,16.1317351 C7.32803993,17.4359771 9.11899338,18.5087861 11.0140303,19.6591045 C12.8966435,20.8222956 14.9672695,22.0835377 16.6787109,24.0042956 C18.4034043,25.9102638 19.437613,28.5258689 19.5527398,30.9911109 C19.7045857,33.4426587 19.1195648,36.0138943 17.7844252,38.0543402 C16.4710961,40.1153275 14.6058762,41.6282701 12.6489966,42.7840663 C12.3787109,42.9440154 12.0297414,42.8560982 11.8687847,42.5879644 C11.7243931,42.3480408 11.7829228,42.0429326 11.9905375,41.8673721 C13.6412406,40.4705568 15.0647269,38.8453211 15.9040207,37.0264485 C16.7493882,35.2094931 16.9677703,33.2350536 16.616316,31.3055313 C16.2880528,29.3779262 15.4145247,27.7573466 14.0261009,26.4944612 C12.663629,25.2000791 10.8663256,24.1667096 8.9533433,23.0604867 C7.05444121,21.9386523 4.95979595,20.7535504 3.15862741,18.8905822 C2.2770929,17.9555377 1.50074619,16.8493147 0.959070424,15.6373721 C0.430370584,14.4204994 0.122537518,13.1277606 0.0300495569,11.8709007 C-0.145815612,9.36512364 0.448592093,6.71227014 1.85716994,4.66141664 C3.24586978,2.59714275 5.16630638,1.12062683 7.18999819,0.0637032626 C7.46249257,-0.0784432342 7.79876224,0.0253593136 7.94232564,0.294862498 C8.06104153,0.519448486 8.00499659,0.790594982 7.82857925,0.956295619" id="path-1"></path>
        <path d="M12.3480656,0.042887976 C13.7823192,0.721849759 15.1483802,1.64895167 16.3394043,2.88444849 C16.9343642,3.50397715 17.4572663,4.21827014 17.9296451,4.98843575 C18.3846306,5.77284339 18.7402261,6.63722556 18.9986402,7.54186887 C19.2272374,8.45335931 19.3705247,9.39908543 19.370249,10.3396077 C19.3509228,11.2760217 19.1187366,15.8178625 16.5934011,18.0029198 C15.9782871,18.4775631 14.9805215,18.2995377 14.5396162,17.6372829 C14.2168746,17.1522319 14.2063834,16.5280472 14.4647976,16.0419007 L14.4970993,15.9830154 C15.1748842,14.7152001 17.9925921,9.78690708 14.7762197,4.34863957 C13.9645343,3.12300263 12.9405407,1.99213001 11.8403481,0.880703263 L11.8364829,0.877416638 C11.6470897,0.685696893 11.6368746,0.364429377 11.8146723,0.160110906 C11.9551988,-0.000933680055 12.17082,-0.0409209412 12.3480656,0.042887976" id="path-2"></path>
        <path d="M7.2465953,42.8210408 C5.81261778,42.1420791 4.44683286,41.2144294 3.25525662,39.9794803 C2.66084891,39.3602256 2.13739466,38.6459326 1.66501585,37.8752192 C1.2100303,37.0910854 0.85443479,36.2267033 0.596020664,35.32206 C0.367423554,34.4108434 0.224136234,33.4645695 0.224960913,32.5240472 C0.24373816,31.5876332 0.47620044,27.0460663 3.00125983,24.8612829 C3.61664988,24.3863657 4.61413944,24.5643912 5.05504474,25.2266459 C5.37778631,25.7116969 5.38882965,26.3361555 5.12986336,26.8220281 L5.0975616,26.8809135 C4.42005277,28.1487287 1.60206882,33.076474 4.81899338,38.5155631 C5.63067877,39.7409262 6.65412018,40.8717988 7.75486497,41.9832256 L7.75817797,41.9865122 C7.94812339,42.1782319 7.95751023,42.4994994 7.77998856,42.7040918 C7.63973816,42.8651364 7.42384089,42.9048498 7.2465953,42.8210408" id="path-3"></path>
        <path d="M30.6488104,24.4983848 C30.3282775,24.4983848 28.9812663,24.4983848 28.6607333,24.4983848 C28.6607333,26.7891619 30.7989998,28.931767 33.8141073,28.931767 C36.6997317,28.931767 38.4741202,27.2136842 38.7311539,25.1135313 C39.0307045,22.7805759 37.5553144,21.2317542 34.7972406,20.5319771 L32.8726627,20.0658243 C31.0126884,19.6204867 30.7771892,18.6651746 30.7771892,18.0294867 C30.7771892,16.6932001 32.1032181,15.8230663 33.535263,15.8230663 C35.139308,15.8230663 36.3151475,16.7570154 36.3151475,18.2203848 C36.6572149,18.2203848 37.9617093,18.2203848 38.3037767,18.2203848 C38.3037767,15.589716 36.25082,13.9354485 33.5570736,13.9354485 C31.0552053,13.9354485 28.7893882,15.589716 28.7893882,18.0500281 C28.7893882,19.3233211 29.2592823,21.0835822 32.3812341,21.8682638 L34.2837253,22.3352383 C35.609202,22.6315822 36.9134203,23.3740854 36.7850415,24.9437224 C36.614698,26.0474803 35.695064,27.0863275 33.8141073,27.0863275 C31.9538569,27.0863275 30.6703449,25.7716778 30.6488104,24.4983848" id="path-4"></path>
        <path d="M41.2308136,15.1657415 C41.2308136,15.8868816 41.8508971,16.4173975 42.5775488,16.4173975 C43.3254589,16.4173975 43.92456,15.8868816 43.92456,15.1657415 C43.92456,14.4446014 43.3254589,13.9146332 42.5775488,13.9146332 C41.8508971,13.9146332 41.2308136,14.4446014 41.2308136,15.1657415 Z M41.615674,28.718958 L43.5391475,28.718958 L43.5391475,18.8141682 L41.615674,18.8141682 L41.615674,28.718958 Z" id="path-5"></path>
        <path d="M48.7839051,23.3740854 C48.7839051,21.2747542 50.1952438,20.4897988 51.6063064,20.4897988 C52.9743,20.4897988 53.8086242,21.4659262 53.8086242,23.1199198 L53.8086242,28.718958 C54.1073465,28.718958 55.4333754,28.718958 55.7539083,28.718958 L55.7539083,22.9925631 C55.7539083,20.2139963 54.3853626,18.602181 51.9053048,18.602181 C50.8150512,18.602181 49.3824541,19.1105122 48.7839051,20.2986268 L48.7839051,18.8141682 L46.8380688,18.8141682 L46.8380688,28.718958 L48.7839051,28.718958 L48.7839051,23.3740854" id="path-6"></path>
        <path d="M66.8759308,23.7775185 C66.8759308,25.8768498 65.1658698,27.0441491 63.5618248,27.0441491 C61.7659019,27.0441491 60.3123224,25.7922192 60.3123224,23.7775185 C60.3123224,21.8474485 61.7659019,20.4897988 63.5618248,20.4897988 C65.3362133,20.4897988 66.8759308,21.6562765 66.8759308,23.7775185 Z M60.4832181,30.140423 C60.2264605,30.2677797 59.1146723,30.8829262 58.8579147,30.9889198 C59.8206178,32.7283657 61.5306788,33.6612192 63.3699468,33.6612192 C66.6622422,33.6612192 68.8212149,31.879595 68.8212149,27.2136842 L68.8212149,18.8141682 L66.8974653,18.8141682 L66.8974653,20.3624421 C66.234865,19.2173275 64.7804573,18.602181 63.3909292,18.602181 C60.6538377,18.602181 58.3236932,20.6379708 58.3236932,23.7988816 C58.3236932,26.9373338 60.6538377,28.931767 63.3909292,28.931767 C64.7804573,28.931767 66.2983642,28.2741682 66.8974653,27.1079644 C66.8974653,27.1923211 66.9189998,27.2561364 66.9189998,27.3404931 C66.9189998,30.6282128 65.5289195,31.8374166 63.3699468,31.8374166 C62.2576065,31.8374166 61.0817671,31.2430854 60.4832181,30.140423 L60.4832181,30.140423 Z" id="path-7"></path>
        <path d="M78.9642454,24.1590408 C78.9642454,26.280009 77.5531828,27.0441491 76.1418441,27.0441491 C74.7741266,27.0441491 73.9613369,26.0680217 73.9613369,24.4132064 L73.9613369,18.8141682 L72.0152245,18.8141682 L72.0152245,24.540837 C71.9942422,27.31913 73.3627879,28.931767 75.8641041,28.931767 C76.9540817,28.931767 78.3659725,28.4226141 78.9642454,27.2344994 L78.9642454,28.718958 L80.9095295,28.718958 L80.9095295,18.8141682 L78.9642454,18.8141682 L78.9642454,24.1590408" id="path-8"></path>
        <polygon id="path-9" points="84.2128682 28.718958 86.1587045 28.718958 86.1587045 13.4265695 84.2128682 13.4265695"></polygon>
        <path d="M97.419873,23.7350663 C97.419873,25.8346714 95.8804316,27.0441491 94.1060431,27.0441491 C92.3101202,27.0441491 90.8565407,25.6864994 90.8565407,23.7350663 C90.8565407,21.7622701 92.3101202,20.4897988 94.1060431,20.4897988 C95.7100881,20.4897988 97.419873,21.6140982 97.419873,23.7350663 Z M97.4416836,28.718958 L99.3659854,28.718958 L99.3659854,18.8141682 L97.4416836,18.8141682 L97.4416836,20.2986268 C96.7790833,19.1743275 95.3246756,18.602181 93.9348714,18.602181 C91.1986081,18.602181 88.8676354,20.5957924 88.8676354,23.7558816 C88.8676354,26.8951555 91.1986081,28.931767 93.9348714,28.931767 C95.3246756,28.931767 96.7790833,28.3166205 97.4416836,27.1923211 L97.4416836,28.718958 L97.4416836,28.718958 Z" id="path-10"></path>
        <path d="M104.620958,25.1135313 C104.620958,22.4834103 105.43292,20.4467988 107.357497,20.4467988 C107.763892,20.4467988 108.298666,20.5319771 108.832887,20.7869644 L109.132438,18.9839771 C108.85387,18.7928052 108.10596,18.602181 107.400014,18.602181 C106.096348,18.602181 105.134197,19.301958 104.620958,21.04113 L104.620958,18.8141682 L102.675674,18.8141682 L102.675674,28.718958 L104.620958,28.718958 L104.620958,25.1135313" id="path-11"></path>
        <path d="M110.851058,15.1657415 C110.851058,15.8868816 111.471141,16.4173975 112.198621,16.4173975 C112.946531,16.4173975 113.545632,15.8868816 113.545632,15.1657415 C113.545632,14.4446014 112.946531,13.9146332 112.198621,13.9146332 C111.471141,13.9146332 110.851058,14.4446014 110.851058,15.1657415 Z M111.235642,28.718958 L113.16022,28.718958 L113.16022,18.8141682 L111.235642,18.8141682 L111.235642,28.718958 Z" id="path-12"></path>
        <polyline id="path-13" points="119.09491 18.8141682 119.09491 15.0813848 117.149626 15.0813848 117.149626 18.8141682 115.353703 18.8141682 115.353703 20.4467988 117.149626 20.4467988 117.149626 28.718958 119.09491 28.718958 119.09491 20.4467988 121.211366 20.4467988 121.211366 18.8141682 119.09491 18.8141682"></polyline>
        <polyline id="path-14" points="126.770306 33.5346842 132.970865 18.8141682 130.896926 18.8141682 127.903629 25.983665 124.910884 18.8141682 122.836945 18.8141682 126.834358 28.4226141 124.73916 33.5346842 126.770306 33.5346842"></polyline>
        <polyline id="path-15" points="145.902338 28.718958 145.902338 14.1052574 143.913709 14.1052574 143.913709 25.0289007 137.264239 14.1052574 135.297144 14.1052574 135.297144 28.718958 137.285773 28.718958 137.285773 17.7106842 143.998743 28.718958 145.902338 28.718958"></polyline>
        <polyline id="path-16" points="150.062088 14.1052574 150.062088 28.718958 158.999186 28.718958 158.999186 26.8737924 152.050717 26.8737924 152.050717 22.462595 157.930191 22.462595 157.930191 20.6171555 152.050717 20.6171555 152.050717 15.950423 158.785497 15.950423 158.785497 14.1052574 150.062088 14.1052574"></polyline>
        <polyline id="path-17" points="160.942261 14.1052574 160.942261 15.97206 165.410948 15.97206 165.410948 28.718958 167.42056 28.718958 167.42056 15.97206 171.889523 15.97206 171.889523 14.1052574 160.942261 14.1052574"></polyline>
    </defs>
    <g id="Symbols" stroke="none" strokeWidth="1" fill="none" fill-rule="evenodd">
        <g id="Bridge_Nav/V2/Connected/Transactions-W-Count" transform="translate(-60.000000, -14.000000)">
            <g id="Group-9" transform="translate(60.000000, 14.000000)">
                <g id="Logo-set-(horizontal)---black---large">
                    <g id="Fill-1">
                        <use fill="#0A0B09" xlink:href="#path-1"></use>
                        <use fill="#220D3A" xlink:href="#path-1"></use>
                    </g>
                    <g id="Fill-2">
                        <use fill="#0A0B09" xlink:href="#path-2"></use>
                        <use fill="#220D3A" xlink:href="#path-2"></use>
                    </g>
                    <g id="Fill-3">
                        <use fill="#0A0B09" xlink:href="#path-3"></use>
                        <use fill="#220D3A" xlink:href="#path-3"></use>
                    </g>
                    <g id="Fill-4">
                        <use fill="#0A0B09" xlink:href="#path-4"></use>
                        <use fill="#220D3A" xlink:href="#path-4"></use>
                    </g>
                    <g id="Fill-5">
                        <use fill="#0A0B09" xlink:href="#path-5"></use>
                        <use fill="#220D3A" xlink:href="#path-5"></use>
                    </g>
                    <g id="Fill-6">
                        <use fill="#0A0B09" xlink:href="#path-6"></use>
                        <use fill="#220D3A" xlink:href="#path-6"></use>
                    </g>
                    <g id="Fill-7">
                        <use fill="#0A0B09" xlink:href="#path-7"></use>
                        <use fill="#220D3A" xlink:href="#path-7"></use>
                    </g>
                    <g id="Fill-8">
                        <use fill="#0A0B09" xlink:href="#path-8"></use>
                        <use fill="#220D3A" xlink:href="#path-8"></use>
                    </g>
                    <g id="Fill-9">
                        <use fill="#0A0B09" xlink:href="#path-9"></use>
                        <use fill="#220D3A" xlink:href="#path-9"></use>
                    </g>
                    <g id="Fill-10">
                        <use fill="#0A0B09" xlink:href="#path-10"></use>
                        <use fill="#220D3A" xlink:href="#path-10"></use>
                    </g>
                    <g id="Fill-11">
                        <use fill="#0A0B09" xlink:href="#path-11"></use>
                        <use fill="#220D3A" xlink:href="#path-11"></use>
                    </g>
                    <g id="Fill-12">
                        <use fill="#0A0B09" xlink:href="#path-12"></use>
                        <use fill="#220D3A" xlink:href="#path-12"></use>
                    </g>
                    <g id="Fill-13">
                        <use fill="#0A0B09" xlink:href="#path-13"></use>
                        <use fill="#220D3A" xlink:href="#path-13"></use>
                    </g>
                    <g id="Fill-14">
                        <use fill="#0A0B09" xlink:href="#path-14"></use>
                        <use fill="#220D3A" xlink:href="#path-14"></use>
                    </g>
                    <g id="Fill-15">
                        <use fill="#0A0B09" xlink:href="#path-15"></use>
                        <use fill="#220D3A" xlink:href="#path-15"></use>
                    </g>
                    <g id="Fill-16">
                        <use fill="#0A0B09" xlink:href="#path-16"></use>
                        <use fill="#220D3A" xlink:href="#path-16"></use>
                    </g>
                    <g id="Fill-17">
                        <use fill="#0A0B09" xlink:href="#path-17"></use>
                        <use fill="#220D3A" xlink:href="#path-17"></use>
                    </g>
                </g>
            </g>
        </g>
    </g>
</svg>