<svg width="118" height="30" viewBox="0 0 118 30" fill="none" xmlns="http://www.w3.org/2000/svg">
<path d="M0.32 29V0.999998H6.8V23.72H20.84V29H0.32ZM37.5919 29.48C35.3785 29.48 33.3252 29.12 31.4319 28.4C29.5652 27.68 27.9385 26.6667 26.5519 25.36C25.1919 24.0533 24.1252 22.52 23.3519 20.76C22.6052 19 22.2319 17.08 22.2319 15C22.2319 12.92 22.6052 11 23.3519 9.24C24.1252 7.48 25.2052 5.94667 26.5919 4.64C27.9785 3.33333 29.6052 2.32 31.4719 1.6C33.3385 0.879999 35.3652 0.52 37.5519 0.52C39.7652 0.52 41.7919 0.879999 43.6319 1.6C45.4985 2.32 47.1119 3.33333 48.4719 4.64C49.8585 5.94667 50.9385 7.48 51.7119 9.24C52.4852 10.9733 52.8719 12.8933 52.8719 15C52.8719 17.08 52.4852 19.0133 51.7119 20.8C50.9385 22.56 49.8585 24.0933 48.4719 25.4C47.1119 26.68 45.4985 27.68 43.6319 28.4C41.7919 29.12 39.7785 29.48 37.5919 29.48ZM37.5519 23.96C38.8052 23.96 39.9519 23.7467 40.9919 23.32C42.0585 22.8933 42.9919 22.28 43.7919 21.48C44.5919 20.68 45.2052 19.7333 45.6319 18.64C46.0852 17.5467 46.3119 16.3333 46.3119 15C46.3119 13.6667 46.0852 12.4533 45.6319 11.36C45.2052 10.2667 44.5919 9.32 43.7919 8.52C43.0185 7.72 42.0985 7.10666 41.0319 6.68C39.9652 6.25333 38.8052 6.04 37.5519 6.04C36.2985 6.04 35.1385 6.25333 34.0719 6.68C33.0319 7.10666 32.1119 7.72 31.3119 8.52C30.5119 9.32 29.8852 10.2667 29.4319 11.36C29.0052 12.4533 28.7919 13.6667 28.7919 15C28.7919 16.3067 29.0052 17.52 29.4319 18.64C29.8852 19.7333 30.4985 20.68 31.2719 21.48C32.0719 22.28 33.0052 22.8933 34.0719 23.32C35.1385 23.7467 36.2985 23.96 37.5519 23.96ZM71.2619 29.48C69.0485 29.48 67.0085 29.1333 65.1419 28.44C63.3019 27.72 61.6885 26.7067 60.3019 25.4C58.9419 24.0933 57.8752 22.56 57.1019 20.8C56.3552 19.04 55.9819 17.1067 55.9819 15C55.9819 12.8933 56.3552 10.96 57.1019 9.2C57.8752 7.44 58.9552 5.90667 60.3419 4.6C61.7285 3.29333 63.3552 2.29333 65.2219 1.6C67.0885 0.879999 69.1419 0.52 71.3819 0.52C73.8619 0.52 76.0885 0.933332 78.0619 1.76C80.0619 2.58666 81.7419 3.78667 83.1019 5.36L78.9419 9.2C77.9285 8.13333 76.8219 7.34667 75.6219 6.84C74.4219 6.30667 73.1152 6.04 71.7019 6.04C70.3419 6.04 69.1019 6.25333 67.9819 6.68C66.8619 7.10666 65.8885 7.72 65.0619 8.52C64.2619 9.32 63.6352 10.2667 63.1819 11.36C62.7552 12.4533 62.5419 13.6667 62.5419 15C62.5419 16.3067 62.7552 17.5067 63.1819 18.6C63.6352 19.6933 64.2619 20.6533 65.0619 21.48C65.8885 22.28 66.8485 22.8933 67.9419 23.32C69.0619 23.7467 70.2885 23.96 71.6219 23.96C72.9019 23.96 74.1419 23.76 75.3419 23.36C76.5685 22.9333 77.7552 22.2267 78.9019 21.24L82.5819 25.92C81.0619 27.0667 79.2885 27.9467 77.2619 28.56C75.2619 29.1733 73.2619 29.48 71.2619 29.48ZM76.6619 25.08V14.56H82.5819V25.92L76.6619 25.08ZM102.201 29.48C99.9879 29.48 97.9346 29.12 96.0413 28.4C94.1746 27.68 92.5479 26.6667 91.1612 25.36C89.8013 24.0533 88.7346 22.52 87.9613 20.76C87.2146 19 86.8413 17.08 86.8413 15C86.8413 12.92 87.2146 11 87.9613 9.24C88.7346 7.48 89.8146 5.94667 91.2013 4.64C92.5879 3.33333 94.2146 2.32 96.0813 1.6C97.9479 0.879999 99.9746 0.52 102.161 0.52C104.375 0.52 106.401 0.879999 108.241 1.6C110.108 2.32 111.721 3.33333 113.081 4.64C114.468 5.94667 115.548 7.48 116.321 9.24C117.095 10.9733 117.481 12.8933 117.481 15C117.481 17.08 117.095 19.0133 116.321 20.8C115.548 22.56 114.468 24.0933 113.081 25.4C111.721 26.68 110.108 27.68 108.241 28.4C106.401 29.12 104.388 29.48 102.201 29.48ZM102.161 23.96C103.415 23.96 104.561 23.7467 105.601 23.32C106.668 22.8933 107.601 22.28 108.401 21.48C109.201 20.68 109.815 19.7333 110.241 18.64C110.695 17.5467 110.921 16.3333 110.921 15C110.921 13.6667 110.695 12.4533 110.241 11.36C109.815 10.2667 109.201 9.32 108.401 8.52C107.628 7.72 106.708 7.10666 105.641 6.68C104.575 6.25333 103.415 6.04 102.161 6.04C100.908 6.04 99.7479 6.25333 98.6813 6.68C97.6413 7.10666 96.7213 7.72 95.9213 8.52C95.1213 9.32 94.4946 10.2667 94.0413 11.36C93.6146 12.4533 93.4013 13.6667 93.4013 15C93.4013 16.3067 93.6146 17.52 94.0413 18.64C94.4946 19.7333 95.1079 20.68 95.8813 21.48C96.6813 22.28 97.6146 22.8933 98.6813 23.32C99.7479 23.7467 100.908 23.96 102.161 23.96Z" fill="white"/>
</svg>
